<svg xmlns="http://www.w3.org/2000/svg" viewBox="0 0 32 32" fill="none">
  <!-- Content Thailand Favicon - Stylized Phoenix/Bird -->
  <defs>
    <linearGradient id="fp" x1="0.5" y1="0" x2="0.5" y2="1">
      <stop offset="0%" stop-color="#EC1C72"/>
      <stop offset="100%" stop-color="#9C27B0"/>
    </linearGradient>
  </defs>
  <!-- Purple body -->
  <path d="M11 28C5 24 2 18 3 11C5 5 10 1 17 3C13 5 10 9 9 14C9 18 10 23 13 27Z" fill="#6A1B9A"/>
  <!-- Pink wing -->
  <path d="M17 3C19 1 22 1 24 3C22 8 20 12 21 16C21 19 18 24 13 27C16 22 17 17 16 12C15 8 16 5 17 3Z" fill="url(#fp)"/>
  <!-- Orange wing -->
  <path d="M21 16C20 12 22 8 24 3C26 5 27 9 26 14C25 17 22 22 18 25C21 21 22 18 21 16Z" fill="#F15A29"/>
  <!-- Yellow top -->
  <path d="M26 14C27 9 26 6 25 4C28 7 29 10 28 15C27 18 24 22 20 24C23 21 25 18 26 14Z" fill="#F7941D"/>
</svg>
