<svg xmlns="http://www.w3.org/2000/svg" viewBox="0 0 110 140" fill="none">
  <!-- Content Thailand Logo: Swirling flame/phoenix forming a C shape -->
  <path d="M 52 135 C 22 118, 2 88, 6 55 C 9 28, 25 8, 45 0 C 35 12, 26 30, 24 50 C 22 72, 30 98, 52 135Z" fill="#7B2D8E"/>
  <path d="M 45 0 C 56 -3, 70 3, 80 18 C 72 34, 66 52, 68 66 C 70 82, 60 105, 52 135 C 48 108, 46 80, 48 60 C 50 40, 48 18, 45 0Z" fill="#D6246E"/>
  <path d="M 80 18 C 88 30, 94 46, 90 62 C 86 78, 76 94, 62 108 C 72 92, 74 78, 68 66 C 66 52, 72 34, 80 18Z" fill="#EE3D24"/>
  <path d="M 90 62 C 94 46, 90 32, 85 22 C 95 34, 100 48, 96 64 C 93 78, 84 90, 72 100 C 82 86, 88 74, 90 62Z" fill="#F9A01B"/>
</svg>
